<svg width="687" height="687" viewBox="0 0 687 687" fill="none" xmlns="http://www.w3.org/2000/svg">
<g filter="url(#filter0_f_104_245)">
<circle cx="343.5" cy="343.5" r="193.5" fill="#C1CBFF"/>
</g>
<circle cx="343.5" cy="343.5" r="215.5" fill="#EFF2FF" stroke="white" stroke-width="12"/>
<mask id="mask0_104_245" style="mask-type:alpha" maskUnits="userSpaceOnUse" x="135" y="135" width="417" height="417">
<circle cx="343.5" cy="343.5" r="208.5" fill="white"/>
</mask>
<g mask="url(#mask0_104_245)">
<mask id="mask1_104_245" style="mask-type:luminance" maskUnits="userSpaceOnUse" x="183" y="244" width="321" height="321">
<path d="M183 244H504V565H183V244Z" fill="white"/>
</mask>
<g mask="url(#mask1_104_245)">
<path d="M465.269 333.424L389.242 257.398C386.043 254.388 381.797 252.742 377.404 252.809C373.012 252.876 368.818 254.65 365.711 257.756C362.605 260.862 360.829 265.055 360.76 269.447C360.692 273.84 362.336 278.086 365.345 281.287L332.746 313.885L408.773 389.912L441.371 357.313C444.539 360.482 448.836 362.263 453.317 362.264C455.536 362.264 457.733 361.828 459.783 360.979C461.833 360.13 463.695 358.886 465.265 357.317C466.834 355.749 468.079 353.887 468.928 351.837C469.777 349.787 470.215 347.59 470.215 345.372C470.216 343.153 469.779 340.956 468.93 338.906C468.082 336.856 466.837 334.993 465.269 333.424Z" fill="#4D64DE"/>
<path d="M377.289 252.447H250.579C241.617 252.447 233.023 256.007 226.686 262.344C220.349 268.681 216.789 277.275 216.789 286.237V522.763C216.789 531.725 220.349 540.319 226.686 546.656C233.023 552.993 241.617 556.553 250.579 556.553H436.421C445.383 556.553 453.977 552.993 460.314 546.656C466.651 540.319 470.211 531.725 470.211 522.763V345.369H394.184C385.737 345.369 377.289 336.921 377.289 328.474V252.447Z" fill="url(#paint0_linear_104_245)"/>
<path d="M377.289 252.448H360.395V328.474C360.395 337.435 363.955 346.03 370.291 352.367C376.628 358.703 385.223 362.263 394.184 362.263H470.21V345.369H394.184C385.737 345.369 377.289 336.921 377.289 328.474V252.448Z" fill="white"/>
<path d="M335.053 346.447C335.053 348.688 334.163 350.836 332.578 352.421C330.994 354.005 328.846 354.895 326.605 354.895H259.026C256.786 354.895 254.637 354.005 253.053 352.421C251.469 350.836 250.579 348.688 250.579 346.447C250.579 344.207 251.469 342.058 253.053 340.474C254.637 338.89 256.786 338 259.026 338H326.605C328.846 338 330.994 338.89 332.578 340.474C334.163 342.058 335.053 344.207 335.053 346.447Z" fill="white"/>
<path d="M335.053 475.447C335.053 477.688 334.163 479.836 332.578 481.421C330.994 483.005 328.846 483.895 326.605 483.895H259.026C256.786 483.895 254.637 483.005 253.053 481.421C251.469 479.836 250.579 477.688 250.579 475.447C250.579 473.207 251.469 471.058 253.053 469.474C254.637 467.89 256.786 467 259.026 467H326.605C328.846 467 330.994 467.89 332.578 469.474C334.163 471.058 335.053 473.207 335.053 475.447Z" fill="white"/>
<path d="M436.421 387.447C436.421 389.688 435.531 391.836 433.947 393.421C432.363 395.005 430.214 395.895 427.974 395.895H259.026C256.786 395.895 254.637 395.005 253.053 393.421C251.469 391.836 250.579 389.688 250.579 387.447C250.579 385.207 251.469 383.058 253.053 381.474C254.637 379.89 256.786 379 259.026 379H427.974C430.214 379 432.363 379.89 433.947 381.474C435.531 383.058 436.421 385.207 436.421 387.447Z" fill="white"/>
<path d="M405 428.395C405 430.649 404.262 432.811 402.95 434.405C401.637 435.999 399.857 436.895 398 436.895H258C256.143 436.895 254.363 435.999 253.05 434.405C251.737 432.811 251 430.649 251 428.395C251 426.14 251.737 423.978 253.05 422.384C254.363 420.79 256.143 419.895 258 419.895H398C399.857 419.895 401.637 420.79 402.95 422.384C404.262 423.978 405 426.14 405 428.395Z" fill="white"/>
</g>
<path d="M442.993 482.313L439.63 485.448L429.65 474.748L426.107 470.948L429.47 467.812L433.013 471.613L442.993 482.313Z" fill="#B7C2FF"/>
<path d="M433.013 471.613C432.476 472.155 431.925 472.688 431.364 473.213C430.803 473.737 430.23 474.252 429.65 474.745L426.107 470.944L429.479 467.809L433.013 471.613ZM443.532 482.815C442.996 483.358 442.444 483.891 441.883 484.415C441.322 484.94 440.749 485.454 440.17 485.948L436.627 482.147L439.998 479.012L443.532 482.815Z" fill="#5E73E4"/>
<path d="M446.965 432.407C446.575 443.374 442.944 453.979 436.531 462.883C430.118 471.787 421.209 478.591 410.931 482.435C400.653 486.279 389.467 486.991 378.784 484.481C368.102 481.971 358.403 476.352 350.912 468.333C340.873 457.568 335.522 443.256 336.034 428.545C336.546 413.835 342.88 399.93 353.643 389.889C376.018 369.016 411.211 370.239 432.084 392.62C437.072 397.938 440.956 404.193 443.511 411.023C446.065 417.852 447.239 425.121 446.965 432.407Z" fill="url(#paint1_linear_104_245)"/>
<path d="M436.599 432.067C436.193 443.749 431.27 454.818 422.865 462.942C414.461 471.067 403.232 475.612 391.542 475.622C391.009 475.622 390.473 475.613 389.933 475.594C387.131 475.498 384.343 475.144 381.606 474.537C376.393 473.378 371.431 471.294 366.954 468.382C363.861 466.365 361.024 463.979 358.507 461.277C350.438 452.51 346.164 440.907 346.617 429C347.071 417.093 352.217 405.849 360.93 397.721C369.644 389.593 381.218 385.242 393.128 385.617C405.038 385.992 416.316 391.062 424.501 399.722C426.305 401.654 427.938 403.74 429.381 405.956C432.295 410.428 434.383 415.387 435.545 420.598C436.382 424.361 436.736 428.215 436.599 432.067Z" fill="url(#paint2_linear_104_245)"/>
<path d="M406.426 406.339C399.134 402.2 390.496 401.126 382.412 403.354C374.328 405.582 367.459 410.929 363.316 418.219" stroke="white" stroke-width="15" stroke-linecap="round" stroke-linejoin="round"/>
<path d="M484.454 528.764C482.556 530.54 480.053 531.527 477.453 531.522H477.088C475.743 531.48 474.419 531.172 473.193 530.615C471.968 530.058 470.864 529.265 469.947 528.279L432.191 489.246L447.21 475.229L484.96 514.241C486.814 516.236 487.802 518.885 487.707 521.607C487.612 524.329 486.443 526.903 484.454 528.764Z" fill="#4D64DE"/>
<path d="M485.79 527.244C484.841 528.57 483.59 529.65 482.14 530.396C480.69 531.143 479.084 531.533 477.453 531.535H477.088C475.742 531.491 474.418 531.181 473.192 530.622C471.966 530.063 470.863 529.267 469.947 528.28L432.191 489.246L434.625 486.975L472.301 525.92C473.218 526.905 474.321 527.7 475.547 528.257C476.773 528.814 478.097 529.123 479.442 529.166H479.807C481.954 529.171 484.048 528.498 485.79 527.244Z" fill="#B5C0FF"/>
<path d="M446.999 479.852L482.55 515.403" stroke="white" stroke-width="3" stroke-linecap="round" stroke-linejoin="round"/>
</g>
<g filter="url(#filter1_f_104_245)">
<circle cx="533.5" cy="232.5" r="48.5" fill="#FF7070" fill-opacity="0.7"/>
</g>
<circle cx="522.5" cy="221.5" r="48.5" fill="url(#paint3_linear_104_245)"/>
<path d="M535.435 208.565C535.904 209.034 536.167 209.67 536.167 210.333C536.167 210.996 535.904 211.632 535.435 212.101L525.536 222L535.435 231.9C535.904 232.368 536.167 233.004 536.167 233.667C536.167 234.33 535.904 234.966 535.435 235.435C534.966 235.904 534.33 236.167 533.667 236.167C533.004 236.167 532.368 235.904 531.899 235.435L522 225.536L512.101 235.435C511.632 235.904 510.996 236.167 510.333 236.167C509.67 236.167 509.034 235.904 508.565 235.435C508.096 234.966 507.833 234.33 507.833 233.667C507.833 233.004 508.096 232.368 508.565 231.9L518.464 222L508.565 212.101C508.096 211.632 507.833 210.996 507.833 210.333C507.833 209.67 508.096 209.034 508.565 208.565C509.034 208.096 509.67 207.833 510.333 207.833C510.996 207.833 511.632 208.096 512.101 208.565L522 218.464L531.899 208.565C532.368 208.096 533.004 207.833 533.667 207.833C534.33 207.833 534.966 208.096 535.435 208.565Z" fill="white" stroke="white" stroke-width="2"/>
<path d="M409.242 415.758C410.824 417.34 410.825 419.906 409.242 421.489L399.637 431.094L409.759 441.216C411.289 442.746 411.289 445.228 409.758 446.759C408.228 448.289 405.746 448.289 404.216 446.759L394.094 436.637L384.489 446.242C382.906 447.825 380.34 447.824 378.758 446.242C377.176 444.659 377.176 442.094 378.758 440.512L388.363 430.906L378.241 420.784C376.711 419.254 376.711 416.773 378.241 415.242C379.772 413.712 382.254 413.711 383.784 415.241L393.906 425.363L403.512 415.758C405.094 414.176 407.659 414.176 409.242 415.758Z" fill="#FF4F75"/>
<defs>
<filter id="filter0_f_104_245" x="0" y="0" width="687" height="687" filterUnits="userSpaceOnUse" color-interpolation-filters="sRGB">
<feFlood flood-opacity="0" result="BackgroundImageFix"/>
<feBlend mode="normal" in="SourceGraphic" in2="BackgroundImageFix" result="shape"/>
<feGaussianBlur stdDeviation="75" result="effect1_foregroundBlur_104_245"/>
</filter>
<filter id="filter1_f_104_245" x="445" y="144" width="177" height="177" filterUnits="userSpaceOnUse" color-interpolation-filters="sRGB">
<feFlood flood-opacity="0" result="BackgroundImageFix"/>
<feBlend mode="normal" in="SourceGraphic" in2="BackgroundImageFix" result="shape"/>
<feGaussianBlur stdDeviation="20" result="effect1_foregroundBlur_104_245"/>
</filter>
<linearGradient id="paint0_linear_104_245" x1="343.5" y1="556.553" x2="343.5" y2="252.447" gradientUnits="userSpaceOnUse">
<stop stop-color="#B5C0FF"/>
<stop offset="1" stop-color="#8895E8"/>
</linearGradient>
<linearGradient id="paint1_linear_104_245" x1="391.502" y1="375" x2="391.502" y2="485.953" gradientUnits="userSpaceOnUse">
<stop stop-color="#B7C2FF"/>
<stop offset="1" stop-color="#4D64DE"/>
</linearGradient>
<linearGradient id="paint2_linear_104_245" x1="391.606" y1="385.595" x2="391.606" y2="475.622" gradientUnits="userSpaceOnUse">
<stop stop-color="#EFF2FF"/>
<stop offset="1" stop-color="white"/>
</linearGradient>
<linearGradient id="paint3_linear_104_245" x1="522.5" y1="173" x2="522.5" y2="270" gradientUnits="userSpaceOnUse">
<stop stop-color="#FF9898"/>
<stop offset="1" stop-color="#FF4F4F"/>
</linearGradient>
</defs>
</svg>
