<svg width="687" height="687" viewBox="0 0 687 687" fill="none" xmlns="http://www.w3.org/2000/svg">
<g filter="url(#filter0_f_104_73)">
<circle cx="343.5" cy="343.5" r="193.5" fill="#C1CBFF"/>
</g>
<circle cx="343.5" cy="343.5" r="215.5" fill="#EFF2FF" stroke="white" stroke-width="12"/>
<mask id="mask0_104_73" style="mask-type:alpha" maskUnits="userSpaceOnUse" x="135" y="135" width="417" height="417">
<circle cx="343.5" cy="343.5" r="208.5" fill="white"/>
</mask>
<g mask="url(#mask0_104_73)">
<path d="M305 570.57H347.494L408.452 275.427L367.709 267L305 570.57Z" fill="#4D64DE"/>
<path d="M400 274L408.5 275.5L401 270L400 274Z" fill="#4D64DE"/>
<path d="M297.97 564.8H340.464L401 270L360.679 261.23L297.97 564.8Z" fill="url(#paint0_linear_104_73)"/>
<path d="M480.984 471.291L224.27 418.26L217 411.74L244.141 322.094L256.054 322.875L237.684 313.088L248.19 260.698L504.904 313.729L512.19 320.264L501.543 371.795L481.203 372.17L492.397 374.312L499.667 380.831L480.984 471.291Z" fill="#4D64DE"/>
<path d="M473.714 464.772L217 411.74L236.871 315.559L248.784 316.34L238.841 306.006L248.19 260.698L504.904 313.729L494.258 365.26L473.933 365.635L492.397 374.312L473.714 464.772Z" fill="url(#paint1_linear_104_73)"/>
<path d="M479.42 365.103C479.42 365.103 479.217 365.103 478.811 365.103L477.013 364.978L470.103 364.416L465.115 363.978L459.19 363.274C454.953 362.743 450.091 362.242 444.791 361.367L436.426 360.1C433.518 359.647 430.517 359.053 427.405 358.537C421.152 357.474 414.538 356.082 407.566 354.675C393.635 351.721 378.392 348.14 362.476 344.091C330.661 335.899 301.988 328.019 281.069 322.907C275.863 321.578 271.11 320.499 266.998 319.498C262.886 318.498 259.181 317.685 256.304 317.044L249.55 315.48L247.799 315.058C247.596 315.013 247.397 314.951 247.205 314.871C247.411 314.879 247.616 314.911 247.815 314.964L249.597 315.293L256.383 316.653C259.337 317.247 262.949 318.013 267.108 318.967C271.266 319.92 276.035 320.952 281.272 322.234C302.222 327.175 330.942 334.961 362.742 343.137C378.658 347.187 393.87 350.798 407.769 353.8C414.742 355.223 421.339 356.645 427.577 357.74C430.704 358.303 433.69 358.897 436.583 359.303L444.916 360.632C450.216 361.554 455.047 362.102 459.284 362.68L465.193 363.462L470.165 363.978L477.06 364.728L478.842 364.947L479.42 365.103Z" fill="#4D64DE" fill-opacity="0.1"/>
<path d="M492.319 356.895C492.118 356.783 491.925 356.657 491.741 356.52L490.177 355.348C488.754 354.331 486.722 352.721 483.923 350.814C476.217 345.407 468.187 340.479 459.878 336.055C447.54 329.537 434.629 324.167 421.308 320.014C404.978 314.998 388.121 311.892 371.075 310.759C352.924 309.43 335.601 311.197 319.826 311.556C312.345 311.821 304.856 311.669 297.391 311.103C281.455 309.792 265.824 305.988 251.067 299.83C247.94 298.533 245.642 297.438 244.063 296.704L242.281 295.797L241.687 295.469C241.909 295.526 242.125 295.61 242.328 295.719L244.157 296.532C245.72 297.251 248.112 298.298 251.208 299.533C259.944 303.034 268.975 305.749 278.192 307.648C284.55 308.955 290.983 309.864 297.454 310.368C304.889 310.886 312.347 311.006 319.795 310.728C335.523 310.321 352.893 308.523 371.138 309.852C388.259 310.994 405.187 314.142 421.574 319.233C434.93 323.45 447.863 328.904 460.206 335.523C468.505 339.986 476.501 344.989 484.142 350.501C486.847 352.44 488.833 354.113 490.24 355.191L491.803 356.442C491.986 356.58 492.159 356.731 492.319 356.895Z" fill="#4D64DE" fill-opacity="0.1"/>
<path d="M368.23 287.964C367.843 288.143 367.44 288.284 367.026 288.386L363.508 289.433C361.945 289.902 360.116 290.418 357.911 290.919C355.707 291.419 353.221 292.107 350.407 292.607C347.593 293.107 344.56 293.78 341.23 294.171C337.9 294.561 334.366 295.109 330.63 295.531C322.494 296.317 314.319 296.636 306.146 296.484C297.975 296.267 289.822 295.594 281.726 294.468C278.005 293.874 274.471 293.358 271.188 292.638C267.905 291.919 264.935 291.294 262.105 290.606C259.275 289.918 256.867 289.215 254.694 288.589C252.521 287.964 250.66 287.385 249.16 286.869L245.689 285.666C245.28 285.542 244.883 285.385 244.501 285.197C244.926 285.246 245.345 285.34 245.751 285.478L249.269 286.51C250.832 286.979 252.646 287.526 254.835 288.073C257.024 288.62 259.525 289.371 262.261 289.949C264.997 290.528 268.061 291.278 271.345 291.857C274.628 292.435 278.145 293.029 281.851 293.592C289.91 294.661 298.02 295.303 306.146 295.515C314.281 295.659 322.417 295.367 330.52 294.64C334.241 294.233 337.79 293.905 341.089 293.373C344.388 292.842 347.452 292.388 350.251 291.81C353.049 291.231 355.551 290.731 357.755 290.246C359.959 289.762 361.851 289.324 363.383 288.917L366.932 288.058C367.36 287.978 367.795 287.947 368.23 287.964Z" fill="#4D64DE" fill-opacity="0.1"/>
<path d="M299.893 379.674C299.893 379.674 300.299 379.893 301.05 380.362L304.427 382.442C307.397 384.24 311.743 386.991 317.559 390.102C324.568 393.997 332.081 396.906 339.885 398.748C342.24 399.272 344.627 399.637 347.03 399.843C349.545 400.157 352.093 399.605 354.253 398.279C355.302 397.508 356.062 396.407 356.41 395.152C356.75 393.856 356.75 392.494 356.41 391.197C355.591 388.485 353.849 386.145 351.486 384.584C331.912 371.607 304.348 362.148 273.158 361.273C269.265 361.148 265.341 361.148 261.339 361.273C257.336 361.398 253.271 362.336 250.598 365.307C249.923 366.007 249.394 366.836 249.043 367.743C248.691 368.65 248.524 369.618 248.55 370.591C248.695 372.579 249.461 374.471 250.739 376C253.256 379.221 256.883 381.457 260.369 383.817C274.44 393.354 289.34 402.829 306.1 409.395C322.859 415.961 340.667 418.916 357.442 416.43C361.581 415.818 365.661 414.856 369.637 413.554C373.553 412.447 377.066 410.232 379.752 407.175C382.154 403.996 383.425 400.105 383.364 396.122C383.375 392.217 382.509 388.359 380.831 384.834C377.42 378.069 372.19 372.389 365.728 368.433C359.646 364.674 353.046 361.824 346.139 359.975C339.494 358.052 332.912 356.676 326.627 355.285L308.538 351.189L253.959 338.791L239.138 335.367L235.292 334.46C234.417 334.257 233.979 334.116 233.979 334.116L235.308 334.366L239.185 335.179L254.053 338.431L308.695 350.532L326.784 354.566C333.037 355.989 339.666 357.333 346.358 359.256C353.348 361.11 360.027 363.98 366.182 367.777C372.789 371.805 378.139 377.599 381.629 384.505C383.364 388.148 384.261 392.133 384.255 396.168C384.325 400.354 382.993 404.443 380.472 407.785C377.678 410.985 374.018 413.308 369.934 414.476C365.905 415.81 361.767 416.788 357.567 417.4C340.589 419.933 322.562 416.915 305.756 410.333C288.949 403.751 273.94 394.277 259.9 384.693C256.43 382.285 252.74 380.003 250.082 376.61C248.678 374.932 247.84 372.852 247.69 370.669C247.663 369.579 247.852 368.493 248.246 367.476C248.64 366.459 249.233 365.53 249.988 364.744C251.435 363.195 253.263 362.053 255.288 361.429C257.254 360.837 259.287 360.501 261.339 360.429C265.372 360.272 269.328 360.288 273.236 360.429C304.614 361.382 332.256 370.919 351.955 384.083C354.436 385.744 356.256 388.223 357.098 391.087C357.466 392.492 357.466 393.967 357.098 395.371C356.714 396.747 355.87 397.95 354.706 398.779C352.431 400.183 349.747 400.773 347.092 400.452C344.658 400.226 342.24 399.845 339.854 399.311C332.021 397.415 324.491 394.437 317.481 390.462C311.665 387.335 307.35 384.49 304.411 382.645C302.973 381.722 301.863 381.081 301.097 380.487C300.33 379.893 299.893 379.674 299.893 379.674Z" fill="#4D64DE" fill-opacity="0.1"/>
<path d="M487.332 396.356C486.803 396.299 486.281 396.199 485.768 396.059C484.799 395.793 483.345 395.512 481.484 395.183C476.172 394.423 470.775 394.466 465.475 395.308C457.631 396.628 450.021 399.083 442.884 402.594C434.198 407.025 425.811 412.018 417.775 417.54C409.695 423.093 401.225 428.057 392.432 432.393C385.179 435.847 377.438 438.167 369.481 439.272C364.108 439.994 358.654 439.841 353.331 438.818C351.891 438.533 350.471 438.157 349.078 437.693C348.583 437.56 348.102 437.383 347.64 437.161C348.142 437.24 348.639 437.355 349.125 437.505C350.094 437.787 351.533 438.099 353.393 438.459C358.686 439.324 364.08 439.371 369.387 438.6C377.252 437.415 384.894 435.053 392.057 431.595C400.786 427.233 409.202 422.271 417.243 416.743C425.319 411.198 433.76 406.204 442.508 401.797C449.731 398.278 457.441 395.864 465.381 394.636C470.746 393.843 476.202 393.906 481.547 394.824C483.031 395.071 484.498 395.41 485.94 395.84C486.419 395.968 486.885 396.141 487.332 396.356Z" fill="#4D64DE" fill-opacity="0.1"/>
<path d="M482.579 421.809C482.579 421.903 481.359 421.402 479.108 420.902C475.928 420.212 472.648 420.106 469.43 420.589C464.662 421.397 460.021 422.826 455.625 424.842C450.191 427.217 444.93 429.97 439.882 433.081C434.441 436.302 429.25 439.444 424.247 441.836C419.859 444.006 415.238 445.669 410.474 446.792C407.254 447.524 403.956 447.85 400.655 447.762C399.76 447.74 398.867 447.662 397.982 447.527C397.668 447.512 397.358 447.455 397.059 447.355C397.059 447.246 398.357 447.355 400.655 447.355C403.918 447.308 407.165 446.888 410.333 446.105C415.016 444.896 419.555 443.187 423.872 441.008C428.781 438.6 433.925 435.458 439.381 432.221C444.472 429.079 449.792 426.325 455.297 423.982C459.775 421.969 464.51 420.586 469.368 419.87C472.66 419.435 476.006 419.647 479.217 420.496C480.083 420.731 480.934 421.018 481.766 421.356C482.057 421.468 482.33 421.62 482.579 421.809Z" fill="#4D64DE" fill-opacity="0.1"/>
<path d="M399.952 292.263C399.952 292.529 390.055 290.591 377.97 287.933C365.885 285.275 356.082 282.914 356.192 282.664C356.301 282.414 366.088 284.337 378.173 286.995C390.259 289.653 399.952 292.013 399.952 292.263Z" fill="#4D64DE" fill-opacity="0.1"/>
<path d="M328.832 351.58L320.796 349.829L318.544 360.179L303.614 356.942L305.865 346.577L277.27 340.323L279.443 330.349L311.071 301.863L326.924 305.303L298.001 332.131L308.945 334.507L310.946 325.314L325.408 328.441L323.407 337.65L331.443 339.401L328.832 351.58Z" fill="white"/>
<path d="M335.57 335.555C339.447 317.669 351.736 309.617 365.557 312.619C379.377 315.621 387.132 328.081 383.239 345.936C379.346 363.79 367.058 371.889 353.315 368.887C339.573 365.885 331.677 353.409 335.57 335.555ZM367.87 342.59C370.341 331.24 367.714 326.205 362.852 325.142C357.99 324.079 353.471 327.55 350.939 338.9C348.406 350.251 351.111 355.301 356.051 356.379C360.991 357.458 365.4 353.956 367.87 342.59Z" fill="white"/>
<path d="M435.911 374.891L427.875 373.139L425.623 383.505L410.677 380.206L412.944 369.841L384.349 363.587L386.522 353.612L418.134 325.127L433.988 328.613L405.08 355.426L416.024 357.818L418.025 348.609L432.471 351.736L430.47 360.929L438.506 362.68L435.911 374.891Z" fill="white"/>
<path d="M317.387 389.946L316.59 393.339L300.315 389.587L305.396 367.886L321.249 371.592L320.452 374.969L308.648 372.201L307.319 377.845L317.794 380.315L317.028 383.63L306.537 381.175L305.13 387.163L317.387 389.946Z" fill="white"/>
<path d="M335.304 397.716L332.365 390.321C332.08 390.282 331.798 390.225 331.521 390.149L326.612 389.008L325.126 395.262L321.093 394.324L326.19 372.608L335.117 374.703C340.823 376.047 343.684 379.784 342.559 384.599C342.272 386.104 341.51 387.477 340.384 388.516C339.258 389.555 337.828 390.204 336.305 390.368L339.635 398.67L335.304 397.716ZM334.132 378.142L329.441 377.032L327.409 385.694L332.099 386.788C335.633 387.617 337.853 386.429 338.494 383.661C339.135 380.894 337.665 378.971 334.132 378.142Z" fill="white"/>
<path d="M357.974 403.032L355.035 395.637C354.75 395.595 354.469 395.538 354.19 395.465L349.297 394.277L347.733 400.609L343.7 399.655L348.781 377.939L357.724 380.034C363.43 381.379 366.276 385.115 365.15 389.931C364.866 391.437 364.105 392.811 362.978 393.85C361.852 394.89 360.42 395.538 358.896 395.7L362.211 404.002L357.974 403.032ZM356.817 383.458L352.127 382.348L350.094 391.009L354.784 392.104C358.318 392.932 360.522 391.744 361.163 388.977C361.804 386.21 360.35 384.287 356.817 383.458Z" fill="white"/>
<path d="M367.448 393.792C369.012 387.382 375.031 383.802 381.754 385.381C388.476 386.96 392.354 392.838 390.837 399.28C389.321 405.721 383.254 409.286 376.532 407.706C369.809 406.127 365.947 400.218 367.448 393.792ZM386.772 398.326C387.122 396.82 387.017 395.244 386.471 393.797C385.925 392.351 384.962 391.099 383.704 390.199C382.447 389.3 380.951 388.794 379.405 388.745C377.86 388.696 376.335 389.106 375.022 389.924C373.71 390.742 372.67 391.931 372.034 393.34C371.397 394.749 371.193 396.315 371.446 397.84C371.7 399.366 372.4 400.781 373.458 401.908C374.517 403.036 375.885 403.824 377.392 404.173C378.393 404.436 379.437 404.492 380.46 404.337C381.484 404.183 382.465 403.82 383.343 403.273C384.221 402.725 384.979 402.004 385.568 401.153C386.158 400.303 386.568 399.341 386.772 398.326Z" fill="white"/>
<path d="M406.784 414.477L403.845 407.082L402.985 406.91L398.091 405.768L396.606 412.022L392.573 411.084L397.669 389.368L406.596 391.463C412.303 392.807 415.164 396.544 414.038 401.359C413.75 402.863 412.987 404.235 411.861 405.273C410.736 406.312 409.307 406.962 407.785 407.128L411.115 415.43L406.784 414.477ZM405.611 394.887L400.921 393.792L398.889 402.438L403.579 403.548C407.128 404.377 409.332 403.189 409.973 400.421C410.614 397.654 409.145 395.715 405.611 394.887Z" fill="white"/>
<path d="M459.947 210.022C460.721 204.444 452.801 199.855 446.835 199.373C444.002 199.151 441.052 199.582 438.364 198.656C432.542 196.636 430.221 189.154 424.543 186.769C420.295 184.996 415.365 186.573 411.287 188.632C407.209 190.692 403.104 193.286 398.502 193.586C394.568 193.833 390.149 192.36 386.701 194.303C384.078 195.749 382.767 198.747 380.328 200.507C377.889 202.267 374.899 202.593 371.988 202.749C369.077 202.905 366.048 202.945 363.386 204.144C360.725 205.343 358.535 208.158 359.085 211L459.947 210.022Z" fill="#FAFAFA"/>
<path d="M272.963 247.32C273.507 243.297 267.869 239.991 263.634 239.643C261.612 239.481 259.509 239.791 257.598 239.118C253.444 237.639 251.79 232.278 247.739 230.555C244.717 229.275 241.233 230.414 238.299 231.9C235.366 233.387 232.462 235.258 229.183 235.465C226.33 235.65 223.235 234.585 220.743 235.99C218.883 237.033 217.912 239.185 216.199 240.427C214.486 241.67 212.332 241.906 210.252 242.047C208.171 242.187 206.017 242.187 204.128 243.06C202.238 243.933 200.665 245.944 201.062 248L272.963 247.32Z" fill="white"/>
</g>
<defs>
<filter id="filter0_f_104_73" x="0" y="0" width="687" height="687" filterUnits="userSpaceOnUse" color-interpolation-filters="sRGB">
<feFlood flood-opacity="0" result="BackgroundImageFix"/>
<feBlend mode="normal" in="SourceGraphic" in2="BackgroundImageFix" result="shape"/>
<feGaussianBlur stdDeviation="75" result="effect1_foregroundBlur_104_73"/>
</filter>
<linearGradient id="paint0_linear_104_73" x1="349.696" y1="261.23" x2="349.696" y2="564.8" gradientUnits="userSpaceOnUse">
<stop stop-color="#B5C0FF"/>
<stop offset="1" stop-color="#7F92F4"/>
</linearGradient>
<linearGradient id="paint1_linear_104_73" x1="360.952" y1="260.698" x2="360.952" y2="464.772" gradientUnits="userSpaceOnUse">
<stop stop-color="#B5C0FF"/>
<stop offset="1" stop-color="#7F92F4"/>
</linearGradient>
</defs>
</svg>
