<svg xmlns="http://www.w3.org/2000/svg" width="84" height="80" fill="none" viewBox="0 0 84 80"><g clip-path="url(#a)"><circle cx="44" cy="40" r="40" fill="#bbf3fd"/><path fill="#13b5ea" d="M.837 19.45c11.53-2.67 25.91-6.89 40.54-15.85.66-.4 1.59 0 1.67.77.98 9.01 6.1 39.17 38.38 44.86 1.08.19 1.44 1.53.51 2.12l-38.41 24.81c-.63.43-1.37.49-2.17.27-3-.79-19.6-5.83-29.24-20.61-6.17-9.46-10.63-21.4-12.11-35.14-.06-.56.28-1.11.83-1.23"/><path fill="#fff" d="M7.577 20.5c4.32-1.1 22.26-5.99 37.69-15.04.73-.43 1.65.02 1.73.86.75 7.03 3.24 33.62 32.03 40.08 1.31.29 2.01 1.19-.28 2.46l-34.36 21.83c-.61.34-1.36.4-2.07.15-3.85-1.33-17.7-5.83-25.16-16.46-6.13-8.72-9.05-19.73-10.45-32.63-.06-.57.31-1.11.87-1.25"/><path fill="#13b5ea" d="M14.647 29.17c-.69 0-1.32-.49-1.47-1.19-.17-.81.35-1.61 1.16-1.78.08-.02 8.24-1.76 18.4-6.51.75-.35 1.64-.03 1.99.72s.03 1.64-.72 1.99c-10.5 4.91-18.71 6.65-19.06 6.73-.1.02-.21.03-.31.03zm2.51 7.44c-.69 0-1.31-.48-1.46-1.18a1.5 1.5 0 0 1 1.14-1.79c.06-.01 6.14-1.38 12.02-4.11a1.499 1.499 0 0 1 1.26 2.72c-6.19 2.88-12.37 4.27-12.63 4.32-.11.02-.22.04-.33.04"/><path fill="#fdcc08" d="M80.927 34.49c-1.64-1.4-2.54-3.85-2.41-6.56 0-.19-.08-.34-.21-.38s-.29.04-.39.2c-1.38 2.33-3.48 3.89-5.62 4.16-.15.02-.28.15-.34.34s-.02.37.1.47c1.64 1.4 2.54 3.85 2.41 6.56 0 .19.08.34.21.38s.29-.04.39-.2c1.38-2.33 3.48-3.89 5.62-4.16.15-.02.28-.15.34-.34s.02-.37-.1-.47"/><path fill="#eb6c00" d="m68.717 7.77-.53.28c-4.23-3.17-11.32-2.9-17.57 1.16-6.42 4.18-9.97 11.05-8.92 16.69l-.46.42 2.86 4.69c3.83 5.58 12.96 5.77 20.46.4 7.25-5.2 10.16-13.61 6.96-19.15l-2.8-4.47z"/><mask id="b" width="32" height="31" x="41" y="5" maskUnits="userSpaceOnUse" style="mask-type:luminance"><path fill="#fff" d="m68.717 7.77-.53.28c-4.23-3.17-11.32-2.9-17.57 1.16-6.42 4.18-9.97 11.05-8.92 16.69l-.46.42 2.86 4.69c3.83 5.58 12.96 5.77 20.46.4 7.25-5.2 10.16-13.61 6.96-19.15l-2.8-4.47z"/></mask><g fill="#fdcc08" mask="url(#b)"><path d="m49.684 25.89-2.764 1.612 5.966 10.226 2.764-1.612zm10.975-2.462-3.384 2.038 6.016 9.988 3.383-2.038z"/></g><path fill="#f7a800" d="M50.677 29.08c-3.5 0-6.23-1.33-7.69-3.75-2.91-4.83.36-12.59 7.15-16.95 2.96-1.9 6.28-2.95 9.33-2.95 3.36 0 6.12 1.28 7.58 3.52 3.01 4.61.2 12.07-6.25 16.64-3.18 2.25-6.78 3.5-10.13 3.5z"/><path fill="#fdcc08" d="M59.487 7.44c1.57 0 4.42.34 5.89 2.6 2.12 3.25.32 9.6-5.73 13.89-2.85 2.01-6.03 3.12-8.97 3.12-1.6 0-4.5-.36-5.96-2.77-2.32-3.85.72-10.49 6.52-14.21 2.64-1.7 5.57-2.63 8.24-2.63m.01-4.04c-3.32 0-7 1.07-10.43 3.27-7.72 4.96-11.34 13.81-7.79 19.69 1.9 3.14 5.4 4.72 9.42 4.72 3.62 0 7.65-1.28 11.3-3.87 7.44-5.27 10.36-13.91 6.78-19.39-1.91-2.93-5.35-4.43-9.28-4.43z"/><path fill="#13b5ea" d="M47.816 60.234c9.128-1.356 15.92-6.552 15.17-11.605-.752-5.053-8.76-8.05-17.889-6.694s-15.92 6.552-15.17 11.605c.752 5.053 8.76 8.05 17.889 6.694"/><mask id="c" width="35" height="26" x="29" y="35" maskUnits="userSpaceOnUse" style="mask-type:luminance"><path fill="#fff" d="M62.987 48.629c.75 5.05-6.04 10.25-15.17 11.61s-17.14-1.64-17.89-6.7 1.99-16.94 11.13-18.3c9.13-1.36 21.19 8.33 21.94 13.39z"/></mask><g mask="url(#c)"><path fill="#eb6c00" d="m37.607 39.159 7.04 4.43c1.78.94 3.61 2.18 5.37 3.68s3.24 3.11 4.42 4.7l5.37 6.08-3.21 3.51-.08.09c-2.52 2.7-9.52.65-15.62-4.59-6.11-5.24-9.02-11.67-6.5-14.38l.08-.09 3.14-3.43z"/><mask id="d" width="27" height="24" x="33" y="39" maskUnits="userSpaceOnUse" style="mask-type:luminance"><path fill="#fff" d="m37.607 39.159 7.04 4.43c1.78.94 3.61 2.18 5.37 3.68s3.24 3.11 4.42 4.7l5.37 6.08-3.21 3.51-.08.09c-2.52 2.7-9.52.65-15.62-4.59-6.11-5.24-9.02-11.67-6.5-14.38l.08-.09 3.14-3.43z"/></mask><g fill="#fdcc08" mask="url(#d)"><path d="m40.009 43.518-7.337 7.87 1.8 1.678 7.336-7.87zm3.002 4.89-7.338 7.87L36.77 57.3l7.338-7.869z"/></g><path fill="#fdcc08" d="M59.84 58.013c2.37-2.828-.709-9.31-6.875-14.48-6.167-5.168-13.088-7.067-15.458-4.24s.708 9.31 6.875 14.48c6.167 5.169 13.088 7.067 15.458 4.24"/><path fill="#eb6c00" d="M55.76 54.628c1.31-1.553-.802-5.492-4.72-8.797-3.916-3.305-8.154-4.726-9.465-3.173-1.31 1.554.802 5.493 4.719 8.798s8.155 4.726 9.465 3.172"/></g></g><defs><clipPath id="a"><path fill="#fff" d="M0 0h84v80H0z"/></clipPath></defs></svg>