<svg width="259" height="259" viewBox="0 0 259 259" fill="none" xmlns="http://www.w3.org/2000/svg">
<path d="M198.378 127.274C199.877 121.356 200.376 118.397 208.868 117.254C217.36 116.111 220.174 115.808 225.352 115.438L224.353 96.2038L220.357 38.9952L183.393 2.5C183.393 2.5 57.1446 6.246 48.0258 6.9386C35.0385 7.92503 28.5449 12.3635 28.5449 23.7067C28.5449 30.0801 31.2779 69.5723 32.541 94.7244C33.5381 114.581 33.54 114.945 33.54 114.945L52.2443 124.808C52.2443 124.808 77.9967 124.497 90.9839 123.822C103.971 123.147 105.424 126.781 107.468 131.219C109.511 135.658 111.178 138.124 113.462 142.07C115.745 146.015 119.455 151.036 132.443 150.454C145.43 149.871 156.919 148.974 175.401 147.988C193.882 147.001 196.88 133.192 198.378 127.274Z" fill="white"/>
<path d="M14.9724 98.1577C19.9721 97.5 32.9723 96.5 32.9723 96.5C33.9704 116.631 33.9723 117 33.9723 117L4.54492 103.289C6.3167 100.344 9.97272 98.8154 14.9724 98.1577Z" fill="#FFACB5"/>
<path d="M1.58887 223.342C1.58819 217.842 1.58892 118.5 1.58865 112.5L1.58887 103.5L33.0885 117.342L51.8112 127.342V249.685C51.8112 249.685 52.0812 254.275 56.5905 256.709C56.5905 256.709 15.5879 242.842 8.08887 238.342C0.589873 233.842 1.58955 228.842 1.58887 223.342Z" fill="#FFCED2"/>
<path d="M256.768 113.999L225.545 96.5L226.545 116C240.541 114.988 256.768 113.999 256.768 113.999Z" fill="#FFCED2"/>
<path d="M209.046 118.341C217.546 117.183 220.363 116.875 225.546 116.5C239.542 115.488 255.768 114.499 255.768 114.499C255.768 114.499 256.768 226.5 255.768 235.5C254.768 244.5 252.768 250.5 240.768 251.5C228.768 252.5 74.7682 256.842 63.7682 256.842C60.8522 256.842 58.674 256.245 57.0475 255.367C52.5382 252.933 52.2682 248.342 52.2682 248.342V126C52.2682 126 78.0459 125.684 91.0458 125C104.046 124.316 105.5 128 107.546 132.5C109.591 137 111.26 139.5 113.546 143.5C115.831 147.5 119.545 152.591 132.545 152C145.545 151.409 157.045 150.5 175.545 149.5C194.045 148.5 197.046 134.5 198.546 128.5C200.046 122.5 200.546 119.5 209.046 118.341Z" fill="#FFE2E4"/>
<path d="M220.546 39L183.546 2C183.546 2 178.546 27.9999 187.046 36C195.546 44.0001 220.546 39 220.546 39Z" fill="#FFE2E4"/>
<path d="M32.5456 95.5001C32.5456 95.5001 19.5454 96.5001 14.5457 97.1578C9.54598 97.8155 5.88996 99.3444 4.11818 102.289M32.5456 95.5001C33.5437 115.631 33.5456 116 33.5456 116M32.5456 95.5001C31.2812 70.0001 28.5456 29.9616 28.5456 23.5C28.5456 11.9999 35.0456 7.50007 48.0456 6.5C57.1733 5.79781 183.546 2 183.546 2M57.0475 255.367C57.0475 255.367 16.0449 241.5 8.5459 237C1.0469 232.5 2.04658 227.5 2.0459 222C2.04522 216.5 2.04595 117.158 2.04569 111.158C2.04556 108.295 2.50098 104.976 4.11818 102.289M57.0475 255.367C52.5382 252.933 52.2682 248.342 52.2682 248.342V126M57.0475 255.367C58.674 256.245 60.8522 256.842 63.7682 256.842C74.7682 256.842 228.768 252.5 240.768 251.5C252.768 250.5 254.768 244.5 255.768 235.5C256.768 226.5 255.768 114.499 255.768 114.499M224.546 97L255.768 114.499M224.546 97L220.546 39M224.546 97L225.546 116.5M255.768 114.499C255.768 114.499 239.542 115.488 225.546 116.5M52.2682 126C52.2682 126 78.0459 125.684 91.0458 125C104.046 124.316 105.5 128 107.546 132.5C109.591 137 111.26 139.5 113.546 143.5C115.831 147.5 119.545 152.591 132.545 152C145.545 151.409 157.045 150.5 175.545 149.5C194.045 148.5 197.046 134.5 198.546 128.5C200.046 122.5 200.546 119.5 209.046 118.341C217.546 117.183 220.363 116.875 225.546 116.5M52.2682 126L33.5456 116M4.11818 102.289L33.5456 116M183.546 2L220.546 39M183.546 2C183.546 2 178.546 27.9999 187.046 36C195.546 44.0001 220.546 39 220.546 39" stroke="#FFACB5" stroke-width="4" stroke-linejoin="round"/>
<path d="M132.255 184.303C149.261 183.427 160.331 182.72 179.837 181.956C199.343 181.192 200.657 206.525 181.646 207.97C162.635 209.415 152.571 209.452 135.064 210.324C117.557 211.196 115.249 185.179 132.255 184.303Z" fill="#FFCED2" stroke="#FFACB5" stroke-width="4" stroke-linejoin="round"/>
<path d="M70.5449 72.5L187.045 67" stroke="#FFACB5" stroke-width="5" stroke-linecap="round" stroke-linejoin="round"/>
<path d="M68.5449 48L135.045 45.5" stroke="#FFACB5" stroke-width="5" stroke-linecap="round" stroke-linejoin="round"/>
<path d="M73.0449 99.5L189.545 93" stroke="#FFACB5" stroke-width="5" stroke-linecap="round" stroke-linejoin="round"/>
</svg>
