<svg width="398" height="402" viewBox="0 0 398 402" fill="none" xmlns="http://www.w3.org/2000/svg">
<circle cx="199" cy="199" r="199" fill="url(#paint0_linear_202_29)"/>
<circle cx="372.895" cy="92.9105" r="9.91052" stroke="#FF603E" stroke-width="4"/>
<circle cx="243.895" cy="389.911" r="9.91052" stroke="#FF603E" stroke-width="4"/>
<g filter="url(#filter0_f_202_29)">
<path d="M54.9844 213L58.3605 222.124L67.4844 225.5L58.3605 228.876L54.9844 238L51.6082 228.876L42.4844 225.5L51.6082 222.124L54.9844 213Z" fill="#FF603E"/>
</g>
<path d="M372.565 269L377.583 282.562L391.145 287.58L377.583 292.599L372.565 306.161L367.546 292.599L353.984 287.58L367.546 282.562L372.565 269Z" fill="#FF603E"/>
<path d="M243.626 233.731L168.542 134.281L96.6206 184.512C89.8362 189.241 88.4011 198.668 93.4241 205.224L139.806 265.729L243.626 233.731Z" fill="#D16048"/>
<path d="M243.626 233.731L168.542 134.281L227.057 95.4016C234.004 90.8026 243.333 92.6618 247.997 99.544L294.15 167.942L243.626 233.731Z" fill="#D16048"/>
<path d="M294.15 167.942L294.118 167.877V167.942H294.15ZM216.358 150.264C218.902 145.404 223.501 141.914 228.883 140.772L269.948 132.063L245.616 95.9886C241.963 90.6068 235.439 87.9322 229.079 89.2043L135.663 108.122L193.559 193.873L216.358 150.264Z" fill="url(#paint1_linear_202_29)"/>
<path d="M156.114 172.574L193.461 194.036L193.559 193.873L135.663 108.122L89.9014 183.794C86.4766 189.47 86.868 196.645 90.9125 201.929L106.504 222.282L140.719 175.836C144.274 170.976 150.896 169.573 156.114 172.574ZM193.591 194.134L193.657 194.069L193.559 194.101L193.591 194.134ZM139.806 265.729L142.35 262.304L139.806 265.696V265.729ZM299.402 125.801L269.948 132.063L294.118 167.877L305.207 132.161C306.349 128.508 303.12 125.018 299.402 125.801Z" fill="url(#paint2_linear_202_29)"/>
<path d="M193.657 194.068L294.118 167.942L193.657 194.036V194.068Z" fill="#FE506B"/>
<path d="M228.883 140.772C223.501 141.914 218.935 145.404 216.358 150.264L193.526 193.873L193.624 194.036L294.085 167.942V167.877L269.916 132.031L228.883 140.772Z" fill="#CAC134"/>
<path d="M228.883 140.772C223.501 141.914 218.935 145.404 216.358 150.264L193.526 193.873L193.624 194.036L294.085 167.942V167.877L269.916 132.031L228.883 140.772Z" fill="url(#paint3_linear_202_29)"/>
<path d="M193.559 193.873L193.461 194.036L193.559 194.101L193.657 194.068V194.036L193.559 193.873Z" fill="#FFBA3B"/>
<path d="M193.559 193.873L193.461 194.036L193.559 194.101L193.657 194.068V194.036L193.559 193.873Z" fill="#FE506B"/>
<path d="M98.7734 232.687C95.6421 236.927 97.012 242.962 101.676 245.408L139.773 265.728V265.696L106.471 222.25L98.7734 232.687Z" fill="url(#paint4_linear_202_29)"/>
<path d="M193.722 194.199L193.591 194.134L142.35 262.304L193.722 194.199Z" fill="#FE506B"/>
<path d="M193.428 194.134L193.461 194.069L156.114 172.606C150.896 169.606 144.274 171.008 140.719 175.836L106.471 222.25L139.773 265.696L142.35 262.304L193.591 194.101L193.526 194.069L193.428 194.134Z" fill="#FFBA3B"/>
<path d="M193.428 194.134L193.461 194.069L156.114 172.606C150.896 169.606 144.274 171.008 140.719 175.836L106.471 222.25L139.773 265.696L142.35 262.304L193.591 194.101L193.526 194.069L193.428 194.134Z" fill="url(#paint5_linear_202_29)"/>
<path d="M193.559 194.101L193.461 194.036L193.428 194.134L193.559 194.101Z" fill="#FFBA3B"/>
<path d="M193.559 194.101L193.461 194.036L193.428 194.134L193.559 194.101Z" fill="#FE506B"/>
<path d="M193.559 194.101L193.461 194.036L193.428 194.134L193.559 194.101Z" fill="#FE506B"/>
<path d="M227.057 277.96L145.416 305.293C140.719 306.891 135.957 303.108 136.446 298.183L139.806 265.729L243.626 233.731L239.06 264.62C237.657 270.817 233.123 275.872 227.057 277.96Z" fill="url(#paint6_linear_202_29)"/>
<path d="M310.72 165.137L276.243 204.734C273.895 207.67 271.188 210.279 268.187 212.53L243.561 233.796L294.085 167.975L307.85 161.549C310.133 160.473 312.285 163.18 310.72 165.137Z" fill="url(#paint7_linear_202_29)"/>
<path d="M199.789 274.502L204.583 272.676C206.312 271.991 208.302 272.35 209.737 273.557L217.108 279.819C219.913 282.2 219.392 286.669 216.097 288.3L211.661 290.518C209.835 291.431 207.617 291.17 206.051 289.833L198.321 283.211C195.353 280.635 196.201 275.905 199.789 274.502ZM236.548 329.528L240.136 327.505C241.441 326.755 243.072 326.56 244.409 326.918L251.259 328.908C253.868 329.658 254.096 332.3 251.683 333.931L248.421 336.116C247.084 337.03 245.257 337.323 243.789 336.899L236.581 334.746C233.874 333.931 233.841 331.061 236.548 329.528Z" fill="#FF603E"/>
<path d="M59.5648 326L64.5832 339.562L78.1452 344.58L64.5832 349.599L59.5648 363.161L54.5464 349.599L40.9844 344.58L54.5464 339.562L59.5648 326Z" fill="#FF603E"/>
<circle cx="331.984" cy="226" r="6" stroke="#FF603E" stroke-width="4"/>
<g filter="url(#filter1_d_202_29)">
<path d="M303.73 210.351C301.571 205.732 298.484 201.588 294.554 198.033C290.641 194.491 286.084 191.711 281.014 189.771C275.776 187.767 270.215 186.75 264.484 186.75C258.754 186.75 253.192 187.767 247.955 189.771C242.885 191.711 238.328 194.493 234.414 198.033C230.485 201.588 227.399 205.732 225.24 210.351C223.01 215.089 221.855 220.263 221.859 225.5C221.859 236.369 226.837 246.652 235.582 253.985C232.797 257.633 228.777 260.94 222.8 264.526C222.437 264.744 222.155 265.075 221.998 265.469C221.841 265.862 221.817 266.296 221.93 266.705C222.043 267.113 222.287 267.473 222.624 267.729C222.961 267.986 223.373 268.125 223.797 268.125C229.696 268.125 235.119 267.538 239.916 266.381C244.006 265.394 247.657 263.991 250.786 262.203C255.224 263.567 259.841 264.257 264.484 264.25C270.215 264.25 275.776 263.233 281.014 261.229C286.083 259.292 290.641 256.507 294.554 252.967C298.483 249.412 301.57 245.268 303.729 240.649C305.955 235.909 307.109 230.737 307.109 225.5C307.109 220.263 305.955 215.091 303.729 210.351H303.73Z" fill="url(#paint8_linear_202_29)"/>
</g>
<path d="M260.442 232.178H266.422C265.686 225.83 275.76 225.002 275.76 218.286C275.76 212.168 270.884 209.04 264.214 209.04C259.292 209.04 255.244 211.294 252.3 214.698L256.072 218.148C258.326 215.802 260.626 214.514 263.432 214.514C267.066 214.514 269.274 216.078 269.274 218.884C269.274 223.346 259.476 224.956 260.442 232.178ZM263.478 244.46C265.778 244.46 267.526 242.758 267.526 240.366C267.526 237.974 265.778 236.318 263.478 236.318C261.132 236.318 259.384 237.974 259.384 240.366C259.384 242.758 261.086 244.46 263.478 244.46Z" fill="white"/>
<g filter="url(#filter2_f_202_29)">
<path d="M113.376 14L119.424 30.344L135.768 36.3918L119.424 42.4396L113.376 58.7836L107.328 42.4396L90.9844 36.3918L107.328 30.344L113.376 14Z" fill="#FF603E"/>
</g>
<defs>
<filter id="filter0_f_202_29" x="38.4844" y="209" width="33" height="33" filterUnits="userSpaceOnUse" color-interpolation-filters="sRGB">
<feFlood flood-opacity="0" result="BackgroundImageFix"/>
<feBlend mode="normal" in="SourceGraphic" in2="BackgroundImageFix" result="shape"/>
<feGaussianBlur stdDeviation="2" result="effect1_foregroundBlur_202_29"/>
</filter>
<filter id="filter1_d_202_29" x="201.859" y="176.75" width="125.249" height="121.375" filterUnits="userSpaceOnUse" color-interpolation-filters="sRGB">
<feFlood flood-opacity="0" result="BackgroundImageFix"/>
<feColorMatrix in="SourceAlpha" type="matrix" values="0 0 0 0 0 0 0 0 0 0 0 0 0 0 0 0 0 0 127 0" result="hardAlpha"/>
<feOffset dy="10"/>
<feGaussianBlur stdDeviation="10"/>
<feComposite in2="hardAlpha" operator="out"/>
<feColorMatrix type="matrix" values="0 0 0 0 0.568627 0 0 0 0 0.227451 0 0 0 0 0.937255 0 0 0 0.39 0"/>
<feBlend mode="normal" in2="BackgroundImageFix" result="effect1_dropShadow_202_29"/>
<feBlend mode="normal" in="SourceGraphic" in2="effect1_dropShadow_202_29" result="shape"/>
</filter>
<filter id="filter2_f_202_29" x="86.9844" y="10" width="52.7837" height="52.7836" filterUnits="userSpaceOnUse" color-interpolation-filters="sRGB">
<feFlood flood-opacity="0" result="BackgroundImageFix"/>
<feBlend mode="normal" in="SourceGraphic" in2="BackgroundImageFix" result="shape"/>
<feGaussianBlur stdDeviation="2" result="effect1_foregroundBlur_202_29"/>
</filter>
<linearGradient id="paint0_linear_202_29" x1="199" y1="0" x2="199" y2="398" gradientUnits="userSpaceOnUse">
<stop stop-color="white" stop-opacity="0"/>
<stop offset="1" stop-color="#FFD3BA"/>
</linearGradient>
<linearGradient id="paint1_linear_202_29" x1="214.907" y1="88.8914" x2="214.907" y2="193.873" gradientUnits="userSpaceOnUse">
<stop stop-color="#FFBAAB"/>
<stop offset="1" stop-color="#FF603E"/>
</linearGradient>
<linearGradient id="paint2_linear_202_29" x1="196.511" y1="108.122" x2="196.511" y2="265.729" gradientUnits="userSpaceOnUse">
<stop stop-color="#FFC7BB"/>
<stop offset="1" stop-color="#FF603E"/>
</linearGradient>
<linearGradient id="paint3_linear_202_29" x1="243.806" y1="132.031" x2="243.806" y2="194.036" gradientUnits="userSpaceOnUse">
<stop stop-color="#FFB8A8"/>
<stop offset="1" stop-color="#FF7A5C"/>
</linearGradient>
<linearGradient id="paint4_linear_202_29" x1="118.429" y1="222.25" x2="118.429" y2="265.728" gradientUnits="userSpaceOnUse">
<stop stop-color="#FFC1B3"/>
<stop offset="1" stop-color="#FF603E"/>
</linearGradient>
<linearGradient id="paint5_linear_202_29" x1="150.031" y1="171.032" x2="150.031" y2="265.696" gradientUnits="userSpaceOnUse">
<stop stop-color="#FFC2B5"/>
<stop offset="1" stop-color="#FF613F"/>
</linearGradient>
<linearGradient id="paint6_linear_202_29" x1="190.019" y1="233.731" x2="190.019" y2="305.664" gradientUnits="userSpaceOnUse">
<stop stop-color="#FF603E"/>
<stop offset="1" stop-color="#FF603E" stop-opacity="0"/>
</linearGradient>
<linearGradient id="paint7_linear_202_29" x1="277.408" y1="161.304" x2="277.408" y2="233.796" gradientUnits="userSpaceOnUse">
<stop stop-color="#FFCDC2"/>
<stop offset="1" stop-color="#FF603E"/>
</linearGradient>
<linearGradient id="paint8_linear_202_29" x1="229.984" y1="209" x2="264.484" y2="268.125" gradientUnits="userSpaceOnUse">
<stop stop-color="#8231EA"/>
<stop offset="1" stop-color="#CA5AFF"/>
</linearGradient>
</defs>
</svg>
