<svg width="297" height="184" viewBox="0 0 297 184" fill="none" xmlns="http://www.w3.org/2000/svg">
<path d="M144.348 93.8774H130.774C130.001 93.8774 129.261 94.1843 128.714 94.7306C128.168 95.2769 127.861 96.0179 127.861 96.7905V178.225C127.861 179.465 128.353 180.653 129.23 181.53C130.106 182.406 131.295 182.898 132.534 182.898H241.16V106.651C241.16 105.412 240.668 104.223 239.791 103.347C238.915 102.47 237.726 101.978 236.487 101.977H147.261V96.7905C147.261 96.0179 146.954 95.2769 146.408 94.7306C145.862 94.1843 145.121 93.8774 144.348 93.8774Z" fill="#011650"/>
<path d="M16.182 67.1715H248.591M241.162 43.7025H40.46V182.898H241.162V43.7025Z" stroke="#F6BCD1" stroke-width="1.619" stroke-linecap="round" stroke-linejoin="round"/>
<path d="M283.245 71.6145L290.107 64.7425L296.978 71.6045L290.117 78.4765L283.245 71.6145Z" fill="#DFE8FE"/>
<path d="M164.174 77.6915H140.021C138.943 77.6915 137.91 78.1196 137.148 78.8816C136.386 79.6435 135.958 80.677 135.958 81.7545V164.758C135.958 165.439 136.092 166.114 136.353 166.744C136.614 167.374 136.996 167.947 137.478 168.429C137.96 168.911 138.532 169.293 139.162 169.554C139.792 169.815 140.467 169.95 141.149 169.95H257.013C257.695 169.95 258.37 169.815 259 169.555C259.63 169.294 260.202 168.911 260.685 168.429C261.167 167.947 261.549 167.375 261.81 166.745C262.071 166.115 262.205 165.439 262.205 164.758V92.0175C262.205 90.6405 261.658 89.3199 260.684 88.3462C259.711 87.3725 258.39 86.8255 257.013 86.8255H168.237V81.7545C168.237 80.677 167.809 79.6435 167.047 78.8816C166.285 78.1196 165.252 77.6915 164.174 77.6915Z" fill="#FF3134"/>
<path d="M209.603 53.4135C209.603 53.1989 209.688 52.993 209.84 52.8411C209.992 52.6892 210.197 52.6038 210.412 52.6035H215.268C215.483 52.6038 215.688 52.6892 215.84 52.8411C215.992 52.993 216.077 53.1989 216.077 53.4135V58.2685C216.077 58.4832 215.992 58.689 215.84 58.8409C215.688 58.9928 215.483 59.0782 215.268 59.0785H210.412C210.197 59.0782 209.992 58.9928 209.84 58.8409C209.688 58.689 209.603 58.4832 209.603 58.2685V53.4135Z" stroke="#FF3134" stroke-width="1.619"/>
<path d="M194.226 55.8405C194.226 55.3935 194.588 55.0315 195.035 55.0315H201.51C201.725 55.0315 201.93 55.1167 202.082 55.2684C202.234 55.4202 202.319 55.6259 202.319 55.8405C202.319 56.0551 202.234 56.2608 202.082 56.4125C201.93 56.5643 201.725 56.6495 201.51 56.6495H195.035C194.82 56.6495 194.615 56.5643 194.463 56.4125C194.311 56.2608 194.226 56.0551 194.226 55.8405Z" fill="#011650"/>
<path fill-rule="evenodd" clip-rule="evenodd" d="M229.413 52.6905C229.567 52.549 229.769 52.4724 229.978 52.4767C230.187 52.481 230.386 52.5659 230.534 52.7136C230.682 52.8612 230.767 53.0603 230.771 53.2692C230.776 53.4781 230.699 53.6806 230.558 53.8345L228.55 55.8425L230.557 57.8485C230.698 58.0022 230.775 58.2047 230.771 58.4136C230.766 58.6225 230.682 58.8216 230.534 58.9694C230.386 59.1172 230.187 59.2022 229.978 59.2067C229.769 59.2112 229.567 59.1348 229.413 58.9935L227.406 56.9865L225.399 58.9935C225.247 59.1452 225.041 59.2303 224.827 59.2302C224.612 59.2302 224.406 59.1448 224.255 58.993C224.103 58.8411 224.018 58.6353 224.018 58.4206C224.018 58.206 224.103 58.0002 224.255 57.8485L226.261 55.8425L224.254 53.8345C224.102 53.6826 224.017 53.4768 224.017 53.2621C224.017 53.0475 224.103 52.8417 224.255 52.69C224.406 52.5383 224.612 52.4531 224.827 52.4532C225.041 52.4533 225.247 52.5386 225.399 52.6905L227.406 54.6975L229.413 52.6905Z" fill="#FC466F"/>
<path d="M14.564 135.513C26.218 146.426 33.447 171.65 35.605 182.898C41.27 161.598 51.005 120.899 77.688 110.384C95.202 103.483 112.17 107.889 124.626 113.916" stroke="#011650" stroke-width="1.619" stroke-linecap="round" stroke-linejoin="round"/>
<path d="M14.567 142.433C22.6121 142.433 29.134 135.912 29.134 127.866C29.134 119.821 22.6121 113.299 14.567 113.299C6.52187 113.299 0 119.821 0 127.866C0 135.912 6.52187 142.433 14.567 142.433Z" fill="#FF3134"/>
<path d="M161.854 152.146H236.308" stroke="white" stroke-width="1.619" stroke-linecap="round"/>
<path d="M90.639 11.3305H17.804C16.0163 11.3305 14.567 12.7798 14.567 14.5675V63.1245C14.567 64.9123 16.0163 66.3615 17.804 66.3615H90.639C92.4268 66.3615 93.876 64.9123 93.876 63.1245V14.5675C93.876 12.7798 92.4268 11.3305 90.639 11.3305Z" fill="#DFE8FE"/>
<path d="M19.423 14.5665L89.83 62.3135M89.829 15.3765L18.613 62.3135" stroke="white" stroke-width="1.619" stroke-linecap="round"/>
<path d="M19.422 6.47449C21.2097 6.47449 22.659 5.02523 22.659 3.23749C22.659 1.44974 21.2097 0.000488281 19.422 0.000488281C17.6343 0.000488281 16.185 1.44974 16.185 3.23749C16.185 5.02523 17.6343 6.47449 19.422 6.47449Z" fill="#FF3134"/>
<path d="M30.753 5.66551C32.094 5.66551 33.181 4.57845 33.181 3.23751C33.181 1.89656 32.094 0.809509 30.753 0.809509C29.4121 0.809509 28.325 1.89656 28.325 3.23751C28.325 4.57845 29.4121 5.66551 30.753 5.66551Z" stroke="#FC466F" stroke-width="1.619"/>
<path d="M207.338 3.52548C208.55 3.20548 209.659 4.29848 209.334 5.49348L205.908 18.0995C205.583 19.2955 204.069 19.6955 203.181 18.8205L193.822 9.59148C192.935 8.71748 193.34 7.22348 194.552 6.90348L207.338 3.52548Z" fill="#FF3134"/>
</svg>
