<svg width="300" height="230" viewBox="0 0 300 230" fill="none" xmlns="http://www.w3.org/2000/svg">
<g filter="url(#filter0_f_5_853)">
<ellipse cx="147.186" cy="186.812" rx="110.607" ry="21.3375" fill="#1F88F8" fill-opacity="0.35"/>
</g>
<path d="M148.401 229.402C211.749 229.402 263.102 178.049 263.102 114.701C263.102 51.3534 211.749 0 148.401 0C85.0533 0 33.7 51.3534 33.7 114.701C33.7 178.049 85.0533 229.402 148.401 229.402Z" fill="url(#paint0_linear_5_853)"/>
<g filter="url(#filter1_d_5_853)">
<path d="M244.482 77.624L146.191 146.219L47.9006 77.624L137.878 14.8054C140.318 13.1047 143.221 12.1929 146.195 12.1929C149.17 12.1929 152.073 13.1047 154.513 14.8054L172.461 27.3528L177.16 30.6161L224.478 63.657L229.463 67.1569L244.482 77.624Z" fill="url(#paint1_linear_5_853)"/>
</g>
<path d="M130.209 135.066L47.9006 193.594V77.624L130.209 135.066Z" fill="url(#paint2_linear_5_853)"/>
<g filter="url(#filter2_f_5_853)">
<ellipse cx="194.215" cy="75.3346" rx="36.5786" ry="11.7574" fill="#FF4C77" fill-opacity="0.3"/>
</g>
<path d="M162.181 135.066L244.49 193.594V77.624L162.181 135.066Z" fill="url(#paint3_linear_5_853)"/>
<path d="M47.9006 193.594L137.772 129.698C140.232 127.947 143.176 127.006 146.195 127.006C149.215 127.006 152.159 127.947 154.619 129.698L244.482 193.594H47.9006Z" fill="url(#paint4_linear_5_853)"/>
<path d="M195.907 68.1406C198.651 68.1406 200.567 66.2679 200.567 63.6548C200.567 61.0417 198.651 59.1689 195.907 59.1689C193.207 59.1689 191.247 61.0417 191.247 63.6548C191.247 66.2679 193.207 68.1406 195.907 68.1406ZM199.652 57.5575C199.652 54.5089 201.133 53.333 203.398 52.1571C206.446 50.5892 208.711 48.0196 208.711 44.3613C208.711 38.9173 203.528 35.0847 196.604 35.0847C189.287 35.0847 184.061 39.3963 183.538 45.4501L191.944 46.9744C192.249 44.1871 193.903 42.1401 196.255 42.1401C198.128 42.1401 199.565 43.4467 199.565 45.2323C199.565 47.0179 197.954 48.0196 196.56 48.9342C193.512 50.9376 192.205 53.2023 192.205 57.5575H199.652Z" fill="white"/>
<g filter="url(#filter3_d_5_853)">
<path d="M58.286 56.6098C43.2175 63.6585 27.025 67.9976 10.4509 69.428C12.6904 74.6339 28.6027 100.693 75.8387 122.165C77.1156 122.361 106.612 108.639 122.8 99.2292C122.25 100.015 72.5187 81.7159 58.286 56.6098Z" fill="url(#paint5_linear_5_853)"/>
</g>
<path d="M195.345 85.1295C213.458 85.1295 228.141 70.4462 228.141 52.3333C228.141 34.2205 213.458 19.5371 195.345 19.5371C177.232 19.5371 162.549 34.2205 162.549 52.3333C162.549 70.4462 177.232 85.1295 195.345 85.1295Z" fill="url(#paint6_linear_5_853)"/>
<path d="M195.039 71.8688C198.537 71.8688 200.98 69.4814 200.98 66.1501C200.98 62.8189 198.537 60.4315 195.039 60.4315C191.597 60.4315 189.098 62.8189 189.098 66.1501C189.098 69.4814 191.597 71.8688 195.039 71.8688ZM199.814 58.3772C199.814 54.4907 201.702 52.9916 204.589 51.4926C208.475 49.4938 211.362 46.218 211.362 41.5543C211.362 34.6141 204.755 29.7283 195.928 29.7283C186.6 29.7283 179.937 35.2249 179.271 42.9423L189.987 44.8855C190.375 41.3322 192.485 38.7227 195.483 38.7227C197.871 38.7227 199.703 40.3883 199.703 42.6647C199.703 44.9411 197.649 46.218 195.872 47.384C191.986 49.938 190.32 52.8251 190.32 58.3772H199.814Z" fill="white"/>
<path d="M59.4522 69.566C58.7587 69.0849 57.8805 68.955 57.0775 69.2148L30.7135 77.7443C29.7691 78.0499 29.4326 79.2131 30.068 79.9757C30.5797 80.5898 31.4173 80.8243 32.1735 80.5653L59.2102 71.3048C59.9731 71.0435 60.1147 70.0257 59.4522 69.566Z" fill="#C9DFFF"/>
<path d="M58.9951 80.0711C58.3264 79.4433 57.3666 79.234 56.4972 79.5266L38.2458 85.669C37.441 85.9399 37.1569 86.9329 37.6966 87.5885C38.1375 88.1241 38.864 88.3306 39.5208 88.107L58.6672 81.5878C59.3136 81.3678 59.4929 80.5385 58.9951 80.0711Z" fill="#C9DFFF"/>
<path d="M68.7912 85.273C68.0935 84.7142 67.1549 84.5595 66.3148 84.8649L45.2914 92.5058C44.4663 92.8057 44.2179 93.8525 44.8204 94.491C45.2814 94.9796 45.9892 95.1463 46.6197 94.915L68.5299 86.8747C69.211 86.6248 69.3576 85.7265 68.7912 85.273Z" fill="#C9DFFF"/>
<path d="M76.1411 101.044C75.4948 100.33 74.4763 100.086 73.5762 100.429L61.5614 105.014C60.8236 105.296 60.5576 106.203 61.0267 106.838C61.4662 107.434 62.2498 107.661 62.9399 107.394L75.818 102.406C76.3734 102.191 76.5407 101.486 76.1411 101.044Z" fill="#C9DFFF"/>
<g filter="url(#filter4_d_5_853)">
<path d="M232.47 92.9507C250.742 101.498 270.376 106.759 290.473 108.494C287.758 114.806 268.463 146.404 211.187 172.44C209.638 172.678 173.872 156.039 154.244 144.629C154.911 145.582 215.212 123.393 232.47 92.9507Z" fill="url(#paint7_linear_5_853)"/>
</g>
<path d="M231.057 108.661C231.898 108.078 232.963 107.92 233.936 108.235L265.904 118.578C267.049 118.948 267.457 120.359 266.687 121.284C266.066 122.028 265.051 122.313 264.134 121.998L231.35 110.77C230.425 110.453 230.253 109.219 231.057 108.661Z" fill="#C9DFFF"/>
<path d="M222.106 117.175C222.917 116.413 224.081 116.16 225.135 116.514L247.266 123.962C248.242 124.291 248.586 125.495 247.932 126.29C247.397 126.939 246.516 127.19 245.72 126.919L222.504 119.014C221.72 118.747 221.503 117.741 222.106 117.175Z" fill="#C9DFFF"/>
<path d="M212.908 124.242C213.754 123.564 214.892 123.377 215.911 123.747L241.403 133.012C242.403 133.376 242.704 134.645 241.974 135.419C241.415 136.012 240.557 136.214 239.792 135.933L213.225 126.184C212.399 125.881 212.221 124.792 212.908 124.242Z" fill="#C9DFFF"/>
<path d="M192.21 138.382C192.994 137.516 194.229 137.219 195.32 137.636L209.889 143.195C210.784 143.537 211.106 144.637 210.537 145.407C210.004 146.129 209.054 146.405 208.217 146.081L192.602 140.033C191.929 139.772 191.726 138.917 192.21 138.382Z" fill="#C9DFFF"/>
<path d="M201.72 130.831C202.582 130.29 203.646 130.178 204.602 130.527L238.17 142.801C239.243 143.193 239.503 144.592 238.643 145.343C238.074 145.84 237.279 145.987 236.57 145.726L201.942 132.97C201.009 132.626 200.877 131.359 201.72 130.831Z" fill="#C9DFFF"/>
<path d="M83.4121 88.7204C82.7009 88.2742 81.8234 88.1819 81.0349 88.4702L53.3513 98.5922C52.4665 98.9157 52.2522 100.069 52.9617 100.689C53.431 101.099 54.0866 101.22 54.6713 101.005L83.2286 90.4847C83.9987 90.201 84.1074 89.1565 83.4121 88.7204Z" fill="#C9DFFF"/>
<path d="M238.632 22.2087C241.277 22.2088 243.422 24.3534 243.422 26.9987C243.422 29.644 241.277 31.7887 238.632 31.7888C235.987 31.7888 233.842 29.6441 233.842 26.9987C233.842 24.3533 235.987 22.2087 238.632 22.2087Z" stroke="url(#paint8_linear_5_853)" stroke-width="2.61276"/>
<circle cx="68.8027" cy="204.666" r="4.79006" stroke="url(#paint9_linear_5_853)" stroke-width="2.61276"/>
<circle cx="215.988" cy="214.246" r="4.79006" stroke="url(#paint10_linear_5_853)" stroke-width="2.61276"/>
<path d="M85.0599 31.9319C85.5748 29.799 88.6087 29.799 89.1236 31.9319L90.8565 39.1108C91.0405 39.873 91.6357 40.4681 92.3979 40.6521L99.5767 42.3851C101.71 42.8999 101.71 45.9339 99.5767 46.4488L92.3979 48.1817C91.6357 48.3657 91.0405 48.9608 90.8565 49.7231L89.1236 56.9019C88.6087 59.0348 85.5748 59.0348 85.0599 56.9019L83.327 49.723C83.143 48.9608 82.5479 48.3657 81.7856 48.1817L74.6068 46.4488C72.4738 45.9339 72.4738 42.8999 74.6068 42.3851L81.7856 40.6521C82.5479 40.4681 83.143 39.873 83.327 39.1108L85.0599 31.9319Z" fill="url(#paint11_linear_5_853)"/>
<path d="M259.57 183.417C260.085 181.284 263.119 181.284 263.634 183.417L265.367 190.596C265.551 191.358 266.146 191.953 266.908 192.137L274.087 193.87C276.22 194.385 276.22 197.419 274.087 197.934L266.908 199.667C266.146 199.851 265.551 200.446 265.367 201.208L263.634 208.387C263.119 210.52 260.085 210.52 259.57 208.387L257.837 201.208C257.653 200.446 257.058 199.851 256.296 199.667L249.117 197.934C246.984 197.419 246.984 194.385 249.117 193.87L256.296 192.137C257.058 191.953 257.653 191.358 257.837 190.596L259.57 183.417Z" fill="url(#paint12_linear_5_853)"/>
<path d="M36.9336 166.614C38.2576 166.402 39.3147 167.703 38.8363 168.956L35.6072 177.411C35.1289 178.664 33.4739 178.929 32.6283 177.888L26.9203 170.864C26.0747 169.823 26.6727 168.258 27.9967 168.046L36.9336 166.614Z" fill="url(#paint13_linear_5_853)"/>
<path d="M263.029 80.4219C262.697 79.1226 263.897 77.9519 265.188 78.3147L273.901 80.7633C275.192 81.126 275.606 82.7502 274.646 83.6867L268.169 90.0084C267.21 90.9449 265.596 90.4915 265.265 89.1922L263.029 80.4219Z" fill="url(#paint14_linear_5_853)"/>
<defs>
<filter id="filter0_f_5_853" x="14.8059" y="143.702" width="264.76" height="86.2211" filterUnits="userSpaceOnUse" color-interpolation-filters="sRGB">
<feFlood flood-opacity="0" result="BackgroundImageFix"/>
<feBlend mode="normal" in="SourceGraphic" in2="BackgroundImageFix" result="shape"/>
<feGaussianBlur stdDeviation="10.8865" result="effect1_foregroundBlur_5_853"/>
</filter>
<filter id="filter1_d_5_853" x="44.417" y="12.1929" width="203.549" height="140.993" filterUnits="userSpaceOnUse" color-interpolation-filters="sRGB">
<feFlood flood-opacity="0" result="BackgroundImageFix"/>
<feColorMatrix in="SourceAlpha" type="matrix" values="0 0 0 0 0 0 0 0 0 0 0 0 0 0 0 0 0 0 127 0" result="hardAlpha"/>
<feOffset dy="3.48368"/>
<feGaussianBlur stdDeviation="1.74184"/>
<feComposite in2="hardAlpha" operator="out"/>
<feColorMatrix type="matrix" values="0 0 0 0 0 0 0 0 0 0 0 0 0 0 0 0 0 0 0.25 0"/>
<feBlend mode="normal" in2="BackgroundImageFix" result="effect1_dropShadow_5_853"/>
<feBlend mode="normal" in="SourceGraphic" in2="effect1_dropShadow_5_853" result="shape"/>
</filter>
<filter id="filter2_f_5_853" x="135.863" y="41.8042" width="116.703" height="67.0608" filterUnits="userSpaceOnUse" color-interpolation-filters="sRGB">
<feFlood flood-opacity="0" result="BackgroundImageFix"/>
<feBlend mode="normal" in="SourceGraphic" in2="BackgroundImageFix" result="shape"/>
<feGaussianBlur stdDeviation="10.8865" result="effect1_foregroundBlur_5_853"/>
</filter>
<filter id="filter3_d_5_853" x="-0.000109673" y="49.6424" width="133.251" height="86.4589" filterUnits="userSpaceOnUse" color-interpolation-filters="sRGB">
<feFlood flood-opacity="0" result="BackgroundImageFix"/>
<feColorMatrix in="SourceAlpha" type="matrix" values="0 0 0 0 0 0 0 0 0 0 0 0 0 0 0 0 0 0 127 0" result="hardAlpha"/>
<feOffset dy="3.48368"/>
<feGaussianBlur stdDeviation="5.22552"/>
<feComposite in2="hardAlpha" operator="out"/>
<feColorMatrix type="matrix" values="0 0 0 0 0.0196078 0 0 0 0 0.168627 0 0 0 0 0.396078 0 0 0 0.15 0"/>
<feBlend mode="normal" in2="BackgroundImageFix" result="effect1_dropShadow_5_853"/>
<feBlend mode="normal" in="SourceGraphic" in2="effect1_dropShadow_5_853" result="shape"/>
</filter>
<filter id="filter4_d_5_853" x="134.158" y="91.2088" width="165.841" height="109.103" filterUnits="userSpaceOnUse" color-interpolation-filters="sRGB">
<feFlood flood-opacity="0" result="BackgroundImageFix"/>
<feColorMatrix in="SourceAlpha" type="matrix" values="0 0 0 0 0 0 0 0 0 0 0 0 0 0 0 0 0 0 127 0" result="hardAlpha"/>
<feOffset dx="-5.28021" dy="13.0638"/>
<feGaussianBlur stdDeviation="7.40282"/>
<feComposite in2="hardAlpha" operator="out"/>
<feColorMatrix type="matrix" values="0 0 0 0 0.021441 0 0 0 0 0.168056 0 0 0 0 0.395833 0 0 0 0.15 0"/>
<feBlend mode="normal" in2="BackgroundImageFix" result="effect1_dropShadow_5_853"/>
<feBlend mode="normal" in="SourceGraphic" in2="effect1_dropShadow_5_853" result="shape"/>
</filter>
<linearGradient id="paint0_linear_5_853" x1="147.517" y1="-37.3495" x2="149.866" y2="365.463" gradientUnits="userSpaceOnUse">
<stop stop-color="#CAE0FF" stop-opacity="0"/>
<stop offset="1" stop-color="#BCD8FF"/>
</linearGradient>
<linearGradient id="paint1_linear_5_853" x1="146.191" y1="12.1929" x2="146.191" y2="146.219" gradientUnits="userSpaceOnUse">
<stop stop-color="#EDF4FF"/>
<stop offset="1" stop-color="#ABCCFF"/>
</linearGradient>
<linearGradient id="paint2_linear_5_853" x1="89.055" y1="77.624" x2="89.055" y2="193.594" gradientUnits="userSpaceOnUse">
<stop stop-color="#ABCCFF"/>
<stop offset="1" stop-color="#70A8FF"/>
</linearGradient>
<linearGradient id="paint3_linear_5_853" x1="203.336" y1="77.624" x2="203.336" y2="193.594" gradientUnits="userSpaceOnUse">
<stop stop-color="#ABCCFF"/>
<stop offset="1" stop-color="#70A8FF"/>
</linearGradient>
<linearGradient id="paint4_linear_5_853" x1="146.191" y1="127.006" x2="146.191" y2="193.594" gradientUnits="userSpaceOnUse">
<stop stop-color="#70A8FF"/>
<stop offset="1" stop-color="#5597FD"/>
</linearGradient>
<linearGradient id="paint5_linear_5_853" x1="22.6438" y1="85.7856" x2="96.2365" y2="71.4154" gradientUnits="userSpaceOnUse">
<stop stop-color="#C6DDFF"/>
<stop offset="1" stop-color="white"/>
</linearGradient>
<linearGradient id="paint6_linear_5_853" x1="162.862" y1="23.9502" x2="228.181" y2="85.3501" gradientUnits="userSpaceOnUse">
<stop stop-color="#FF698D"/>
<stop offset="1" stop-color="#FF3868"/>
</linearGradient>
<linearGradient id="paint7_linear_5_853" x1="275.689" y1="128.328" x2="186.453" y2="110.903" gradientUnits="userSpaceOnUse">
<stop stop-color="#C6DDFF"/>
<stop offset="1" stop-color="white"/>
</linearGradient>
<linearGradient id="paint8_linear_5_853" x1="231.138" y1="23.1882" x2="250.19" y2="39.6994" gradientUnits="userSpaceOnUse">
<stop stop-color="#94BFFF"/>
<stop offset="1" stop-color="#4C94FE"/>
</linearGradient>
<linearGradient id="paint9_linear_5_853" x1="61.3092" y1="200.856" x2="80.3606" y2="217.367" gradientUnits="userSpaceOnUse">
<stop stop-color="#94BFFF"/>
<stop offset="1" stop-color="#4C94FE"/>
</linearGradient>
<linearGradient id="paint10_linear_5_853" x1="208.495" y1="210.436" x2="227.546" y2="226.947" gradientUnits="userSpaceOnUse">
<stop stop-color="#94BFFF"/>
<stop offset="1" stop-color="#4C94FE"/>
</linearGradient>
<linearGradient id="paint11_linear_5_853" x1="87.0918" y1="23.5148" x2="87.0918" y2="65.319" gradientUnits="userSpaceOnUse">
<stop stop-color="#70A8FF"/>
<stop offset="1" stop-color="#5597FD"/>
</linearGradient>
<linearGradient id="paint12_linear_5_853" x1="261.602" y1="175" x2="261.602" y2="216.804" gradientUnits="userSpaceOnUse">
<stop stop-color="#70A8FF"/>
<stop offset="1" stop-color="#5597FD"/>
</linearGradient>
<linearGradient id="paint13_linear_5_853" x1="39.9126" y1="166.137" x2="26.3948" y2="177.122" gradientUnits="userSpaceOnUse">
<stop stop-color="#70A8FF"/>
<stop offset="1" stop-color="#5597FD"/>
</linearGradient>
<linearGradient id="paint14_linear_5_853" x1="262.283" y1="77.4985" x2="274.449" y2="89.9639" gradientUnits="userSpaceOnUse">
<stop stop-color="#70A8FF"/>
<stop offset="1" stop-color="#5597FD"/>
</linearGradient>
</defs>
</svg>
